<svg width="479" height="100" viewBox="0 0 479 100" fill="none" xmlns="http://www.w3.org/2000/svg">
<path d="M78.76 0.821899H42.96C42.84 0.821899 42.72 0.8319 42.6 0.8419C42.47 0.8319 42.34 0.821899 42.21 0.821899H28.75C16.45 0.821899 5.95 8.6019 1.85 19.5319C0.66 22.7119 0 26.1419 0 29.7419C0 33.3319 0.66 36.7719 1.85 39.9519C5.95 50.8819 16.45 58.4719 28.75 58.6619C31.36 58.7019 33.85 58.7419 36.24 58.7819V65.1719V74.8119V92.3319C36.24 96.5119 39.25 99.8919 42.97 99.8919H78.77C97.67 99.8919 107.12 90.4619 107.12 71.5919V29.1219C107.11 10.2519 97.66 0.821899 78.76 0.821899ZM85.85 71.5819C85.85 76.3019 83.49 78.6619 78.76 78.6619H57.5V64.1019V63.0619V58.2119C69.63 56.6719 75.62 51.7819 75.62 37.4319H31.19C25.44 37.4319 20.74 33.9719 20.74 29.7419C20.74 25.5119 25.44 22.0519 31.19 22.0519H36.24H42.22H57.5H78.76C83.49 22.0519 85.85 24.4119 85.85 29.1319V71.5819Z" fill="#2D4A8A"/>
<path opacity="0.2" d="M82.6 64.3819C76.21 64.7719 68.3 64.7619 58.84 64.6919V68.1819V73.4419H82.6V64.3819Z" fill="black"/>
<path d="M13.26 14.8419C11.43 17.9319 10.46 21.6019 10.05 25.0419C9.68999 28.0119 9.53999 31.0719 10.24 34.0119C10.89 36.7519 11.95 39.5619 13.75 41.9119C15.77 44.5419 18.2 46.6219 20.73 48.8719C13.52 45.8319 7.98999 40.3619 7.10999 33.2519C6.31999 26.9319 7.88999 19.4619 13.26 14.8419Z" fill="white"/>
<path d="M82.6 6.1319C94.74 4.9419 104.56 15.5519 102.4 25.5719C100.96 21.2119 99.48 16.7119 95.7 13.3719C92.29 9.7619 87.55 7.6819 82.6 6.1319Z" fill="white"/>
<path opacity="0.85" d="M142.42 47.76C142.42 44.52 142.3 41.98 142.06 40.14C141.86 38.26 141.54 36.84 141.1 35.88C140.7 34.92 140.16 34.32 139.48 34.08C138.84 33.8 138.06 33.66 137.14 33.66C136.58 33.66 136.06 33.68 135.58 33.72C135.14 33.72 134.76 33.74 134.44 33.78C134.04 33.82 133.7 33.86 133.42 33.9V62.1C133.66 62.14 133.96 62.18 134.32 62.22C134.64 62.26 135.02 62.3 135.46 62.34C135.9 62.34 136.44 62.34 137.08 62.34C138 62.34 138.8 62.12 139.48 61.68C140.16 61.24 140.72 60.48 141.16 59.4C141.6 58.28 141.92 56.78 142.12 54.9C142.32 53.02 142.42 50.64 142.42 47.76ZM150.76 47.34C150.76 51.82 150.46 55.5 149.86 58.38C149.26 61.26 148.36 63.54 147.16 65.22C145.96 66.86 144.46 68 142.66 68.64C140.9 69.28 138.86 69.6 136.54 69.6C135.5 69.6 134.32 69.56 133 69.48C131.68 69.44 130.44 69.38 129.28 69.3C127.96 69.18 126.6 69.08 125.2 69V27C126.6 26.92 127.96 26.82 129.28 26.7C130.4 26.62 131.56 26.56 132.76 26.52C133.96 26.44 134.98 26.4 135.82 26.4C138.22 26.4 140.34 26.66 142.18 27.18C144.06 27.7 145.62 28.72 146.86 30.24C148.14 31.76 149.1 33.88 149.74 36.6C150.42 39.32 150.76 42.9 150.76 47.34ZM155.854 69V62.64H160.054V33.36H155.854V27H172.474V33.36H168.274V62.64H172.474V69H155.854ZM201.855 68.46C200.255 68.78 198.535 69.04 196.695 69.24C194.895 69.44 193.175 69.54 191.535 69.54C189.015 69.54 186.855 69.22 185.055 68.58C183.295 67.94 181.855 66.8 180.735 65.16C179.615 63.48 178.795 61.22 178.275 58.38C177.795 55.5 177.555 51.82 177.555 47.34C177.555 42.9 177.895 39.32 178.575 36.6C179.255 33.88 180.235 31.78 181.515 30.3C182.835 28.78 184.455 27.76 186.375 27.24C188.295 26.72 190.495 26.46 192.975 26.46C193.975 26.46 195.175 26.56 196.575 26.76C198.015 26.96 199.355 27.2 200.595 27.48V34.56C199.315 34.32 197.935 34.12 196.455 33.96C195.015 33.76 193.655 33.66 192.375 33.66C191.135 33.66 190.095 33.84 189.255 34.2C188.415 34.56 187.735 35.26 187.215 36.3C186.735 37.3 186.395 38.72 186.195 40.56C185.995 42.4 185.895 44.8 185.895 47.76C185.895 50.76 185.975 53.22 186.135 55.14C186.335 57.02 186.635 58.5 187.035 59.58C187.475 60.66 188.035 61.4 188.715 61.8C189.435 62.16 190.315 62.34 191.355 62.34C191.795 62.34 192.215 62.34 192.615 62.34C193.055 62.34 193.475 62.32 193.875 62.28V52.8H190.035V45.72H201.855V68.46ZM207.241 69V62.64H211.441V33.36H207.241V27H223.861V33.36H219.661V62.64H223.861V69H207.241ZM250.181 56.52C250.181 59.32 249.821 61.58 249.101 63.3C248.421 64.98 247.461 66.28 246.221 67.2C245.021 68.12 243.561 68.72 241.841 69C240.161 69.28 238.321 69.42 236.321 69.42C235.681 69.42 234.961 69.4 234.161 69.36C233.401 69.32 232.621 69.26 231.821 69.18C231.061 69.1 230.321 69 229.601 68.88C228.921 68.76 228.321 68.64 227.801 68.52V61.38C228.281 61.5 228.841 61.62 229.481 61.74C230.161 61.86 230.861 61.96 231.581 62.04C232.301 62.12 233.021 62.2 233.741 62.28C234.461 62.32 235.121 62.34 235.721 62.34C237.601 62.34 239.081 61.96 240.161 61.2C241.281 60.4 241.841 59.04 241.841 57.12C241.841 56.04 241.721 55.12 241.481 54.36C241.281 53.6 240.961 52.98 240.521 52.5C240.081 52.02 239.541 51.64 238.901 51.36C238.261 51.08 237.541 50.86 236.741 50.7C233.381 50.02 230.981 48.72 229.541 46.8C228.141 44.88 227.441 42.16 227.441 38.64C227.441 36.4 227.741 34.52 228.341 33C228.981 31.48 229.901 30.24 231.101 29.28C232.341 28.32 233.841 27.64 235.601 27.24C237.401 26.8 239.441 26.58 241.721 26.58C242.281 26.58 242.901 26.6 243.581 26.64C244.261 26.68 244.941 26.76 245.621 26.88C246.301 26.96 246.941 27.06 247.541 27.18C248.181 27.26 248.721 27.36 249.161 27.48V34.56C248.641 34.44 248.021 34.34 247.301 34.26C246.621 34.14 245.901 34.04 245.141 33.96C244.421 33.84 243.701 33.76 242.981 33.72C242.261 33.68 241.641 33.66 241.121 33.66C239.401 33.66 238.081 34 237.161 34.68C236.241 35.36 235.781 36.46 235.781 37.98C235.781 38.94 235.841 39.74 235.961 40.38C236.121 40.98 236.381 41.48 236.741 41.88C237.101 42.24 237.581 42.54 238.181 42.78C238.781 43.02 239.561 43.24 240.521 43.44C241.961 43.72 243.261 44.16 244.421 44.76C245.621 45.32 246.641 46.1 247.481 47.1C248.361 48.1 249.021 49.36 249.461 50.88C249.941 52.4 250.181 54.28 250.181 56.52ZM271.118 50.52V69H262.718V50.52L251.678 27H260.558L267.218 43.2L273.878 27H282.338L271.118 50.52ZM304.373 47.76C304.373 44.52 304.253 41.98 304.013 40.14C303.813 38.26 303.493 36.84 303.053 35.88C302.653 34.92 302.113 34.32 301.433 34.08C300.793 33.8 300.013 33.66 299.093 33.66C298.533 33.66 298.013 33.68 297.533 33.72C297.093 33.72 296.713 33.74 296.393 33.78C295.993 33.82 295.653 33.86 295.373 33.9V62.1C295.613 62.14 295.913 62.18 296.273 62.22C296.593 62.26 296.973 62.3 297.413 62.34C297.853 62.34 298.393 62.34 299.033 62.34C299.953 62.34 300.753 62.12 301.433 61.68C302.113 61.24 302.673 60.48 303.113 59.4C303.553 58.28 303.873 56.78 304.073 54.9C304.273 53.02 304.373 50.64 304.373 47.76ZM312.713 47.34C312.713 51.82 312.413 55.5 311.813 58.38C311.213 61.26 310.313 63.54 309.113 65.22C307.913 66.86 306.413 68 304.613 68.64C302.853 69.28 300.813 69.6 298.493 69.6C297.453 69.6 296.273 69.56 294.953 69.48C293.633 69.44 292.393 69.38 291.233 69.3C289.913 69.18 288.553 69.08 287.153 69V27C288.553 26.92 289.913 26.82 291.233 26.7C292.353 26.62 293.513 26.56 294.713 26.52C295.913 26.44 296.933 26.4 297.773 26.4C300.173 26.4 302.293 26.66 304.133 27.18C306.013 27.7 307.573 28.72 308.813 30.24C310.093 31.76 311.053 33.88 311.693 36.6C312.373 39.32 312.713 42.9 312.713 47.34ZM319.907 69V27H341.387V33.48H328.127V44.1H339.887V50.52H328.127V62.52H341.387V69H319.907ZM373.039 39.72C373.039 43.04 372.539 45.66 371.539 47.58C370.539 49.46 369.139 50.86 367.339 51.78L374.839 69H365.539L359.179 53.16H356.779V69H348.559V27C349.719 26.92 350.939 26.82 352.219 26.7C353.299 26.62 354.479 26.56 355.759 26.52C357.079 26.44 358.359 26.4 359.599 26.4C362.199 26.4 364.359 26.68 366.079 27.24C367.799 27.76 369.179 28.58 370.219 29.7C371.259 30.82 371.979 32.22 372.379 33.9C372.819 35.54 373.039 37.48 373.039 39.72ZM364.699 40.14C364.699 37.78 364.419 36.1 363.859 35.1C363.299 34.1 362.159 33.6 360.439 33.6C359.479 33.6 358.639 33.66 357.919 33.78C357.479 33.86 357.099 33.92 356.779 33.96V46.08H360.559C361.799 46.08 362.799 45.58 363.559 44.58C364.319 43.58 364.699 42.1 364.699 40.14Z" fill="#2D2D2D"/>
</svg>
